<?xml version="1.0" standalone="no"?>
<!DOCTYPE svg PUBLIC "-//W3C//DTD SVG 20010904//EN" "http://www.w3.org/TR/2001/REC-SVG-20010904/DTD/svg10.dtd">
<!-- Created using Krita: http://krita.org -->
<svg xmlns="http://www.w3.org/2000/svg" 
    xmlns:xlink="http://www.w3.org/1999/xlink"
    xmlns:krita="http://krita.org/namespaces/svg/krita"
    xmlns:sodipodi="http://sodipodi.sourceforge.net/DTD/sodipodi-0.dtd"
    width="625.68pt"
    height="175.68pt"
    viewBox="0 0 625.68 175.68">
<defs/>
<g id="group0" transform="matrix(0.0166704200282382 0 0 -0.0166704200282382 -141.41443913812 483.110180725352)" fill="none">
  <path id="shape0" transform="translate(1139, 1530)" fill="#000000" d="M5204 9580C5158 9552 5146 9522 5095 9313C5039 9078 5009 8977 4964 8875C4861 8641 4866 8433 4978 8212C5012 8145 5022 8117 5014 8109C5008 8103 5005 8083 5008 8065C5012 8043 5004 8012 4982 7962C4964 7922 4936 7834 4919 7766L4887 7642L4807 7635C4516 7611 4218 7542 3913 7428C3735 7362 3630 7315 3440 7219C3242 7118 3132 7046 2849 6833C2505 6573 2347 6471 2171 6398C2042 6343 2044 6344 2036 6382C2019 6457 1964 6528 1891 6566C1866 6579 1835 6585 1781 6585C1696 6585 1648 6565 1595 6508C1541 6451 1526 6413 1526 6330C1526 6242 1547 6194 1610 6137L1650 6101L1604 6008C1549 5895 1131 5032 1051 4865C1019 4799 904 4561 794 4335C685 4110 476 3679 331 3378L66 2830L33 2830L0 2830L42 2768C105 2673 300 2485 411 2411C667 2242 997 2125 1371 2073C1549 2048 2004 2049 2186 2073C2675 2140 3071 2310 3342 2567C3425 2647 3551 2799 3551 2821C3551 2826 3539 2830 3523 2830C3496 2830 3483 2857 3076 3697C2845 4174 2491 4904 2290 5320L1925 6075L2020 6091C2352 6147 2637 6279 3056 6570C3133 6623 3245 6700 3305 6740C3610 6944 4040 7117 4448 7199C4572 7224 4767 7250 4831 7250C4845 7250 4849 7226 4859 7078C4881 6761 4941 6478 5048 6191C5078 6111 5081 6094 5071 6075C5057 6049 5064 6030 5088 6030C5101 6030 5102 6010 5096 5863C5092 5770 5087 5688 5086 5680C5085 5672 5080 5591 5075 5500C5071 5409 5067 5333 5066 5330C5065 5327 5061 5246 5056 5150C5051 5054 5047 4973 5046 4970C5045 4967 5041 4886 5036 4790C5031 4694 5027 4613 5026 4610C5025 4607 5021 4522 5017 4420C5012 4318 5007 4228 5006 4220C5005 4212 5000 4122 4997 4020C4993 3918 4988 3819 4986 3800C4976 3712 4959 3019 4963 2880C4967 2762 4973 2710 4989 2662C5013 2589 5009 2569 4964 2515C4899 2439 4885 2317 4929 2217C4947 2176 4948 2171 4933 2156C4919 2142 4919 2139 4935 2122C4951 2104 4949 2088 4895 1819C4828 1482 4822 1397 4845 1121C4854 1015 4861 899 4861 864L4861 800L4529 800C4200 800 4195 800 4145 776C4079 745 4030 701 4000 645L3976 600L3848 600C3663 600 3586 569 3502 459C3474 422 3460 413 3415 403C3336 385 3287 356 3244 303C3164 204 3150 193 3055 165C3006 150 2950 129 2930 119C2887 97 2841 46 2841 19C2841 0 2880 0 5261 0C7642 0 7681 0 7681 19C7681 71 7599 126 7466 165C7376 191 7357 204 7297 279C7236 356 7171 395 7090 406C7050 411 7041 417 7031 440C7015 480 6954 535 6891 567C6839 593 6827 595 6688 598L6540 602L6530 628C6512 674 6455 735 6400 765L6346 795L6004 798L5661 801L5661 875C5661 915 5668 1033 5677 1137C5698 1389 5693 1479 5638 1755C5570 2097 5570 2098 5584 2121C5593 2135 5593 2145 5585 2157C5577 2170 5579 2184 5592 2216C5637 2316 5623 2439 5558 2515C5513 2569 5509 2589 5533 2662C5562 2751 5566 2916 5552 3363C5545 3568 5538 3753 5536 3775C5534 3797 5529 3894 5526 3990C5523 4086 5518 4181 5516 4200C5514 4219 5509 4309 5506 4400C5502 4491 5498 4576 5496 4590C5494 4604 5490 4685 5486 4770C5482 4855 5478 4936 5476 4950C5474 4964 5470 5045 5466 5130C5462 5215 5458 5296 5456 5310C5454 5324 5449 5405 5446 5490C5442 5575 5437 5652 5436 5660C5435 5668 5430 5753 5426 5847L5419 6020L5442 6039C5464 6057 5465 6059 5449 6077C5438 6089 5435 6100 5441 6111C5460 6145 5522 6328 5556 6448C5619 6677 5652 6884 5666 7133C5672 7236 5675 7250 5691 7250C5734 7250 5923 7228 6001 7214C6308 7159 6680 7033 6965 6887C7031 6854 7159 6776 7250 6715C7341 6654 7486 6556 7571 6499C7936 6253 8236 6124 8539 6085C8567 6081 8591 6075 8591 6071C8591 6067 8325 5515 8001 4845C7676 4174 7324 3446 7218 3228L7026 2830L6993 2830L6960 2830L7002 2767C7026 2733 7095 2655 7156 2594C7433 2316 7824 2144 8336 2073C8517 2049 8972 2049 9151 2074C9659 2144 10050 2318 10326 2594C10387 2655 10456 2733 10480 2767L10522 2830L10489 2830L10455 2830L10244 3268C10127 3508 9771 4245 9452 4904L8871 6103L8916 6142C9023 6236 9028 6401 8927 6508C8874 6565 8826 6585 8741 6585C8684 6585 8657 6580 8626 6563C8556 6526 8502 6456 8486 6382C8478 6344 8482 6343 8342 6401C8191 6464 8012 6578 7699 6812C7372 7057 7292 7110 7076 7221C6616 7459 6161 7597 5709 7636L5632 7642L5616 7714C5595 7808 5555 7934 5529 7983C5516 8009 5511 8035 5513 8059C5516 8079 5513 8103 5507 8113C5498 8127 5501 8139 5519 8168C5560 8234 5593 8313 5613 8395C5630 8460 5633 8495 5629 8585C5623 8701 5612 8742 5538 8920C5518 8967 5474 9118 5441 9255C5407 9393 5372 9518 5364 9533C5347 9567 5296 9600 5261 9600C5247 9600 5222 9591 5204 9580ZM1819 6368C1826 6361 1831 6344 1831 6330C1831 6316 1826 6299 1819 6292C1812 6285 1795 6280 1781 6280C1767 6280 1750 6285 1743 6292C1736 6299 1731 6316 1731 6330C1731 6344 1736 6361 1743 6368C1750 6375 1767 6380 1781 6380C1795 6380 1812 6375 1819 6368ZM8779 6368C8786 6361 8791 6344 8791 6330C8791 6316 8786 6299 8779 6292C8772 6285 8755 6280 8741 6280C8727 6280 8710 6285 8703 6292C8696 6299 8691 6316 8691 6330C8691 6344 8696 6361 8703 6368C8710 6375 8727 6380 8741 6380C8755 6380 8772 6375 8779 6368ZM1735 6074C1750 6068 1751 5916 1751 4449L1751 2830L947 2830L142 2830L215 2983C256 3066 369 3302 468 3505C567 3709 887 4371 1181 4978C1474 5584 1715 6080 1717 6080C1718 6080 1726 6077 1735 6074ZM8953 5778C9182 5302 10348 2896 10365 2861L10382 2830L9576 2830L8771 2830L8771 4448C8771 5338 8774 6070 8778 6073C8781 6077 8790 6080 8796 6080C8802 6080 8873 5944 8953 5778ZM2011 5740C2098 5561 2406 4925 2696 4325C2986 3726 3268 3144 3322 3033L3420 2830L2615 2830L1811 2830L1811 4451L1811 6071L1833 6068C1851 6066 1883 6006 2011 5740ZM8704 4453L8701 2835L7902 2832L7102 2830L7170 2972C7208 3051 7279 3198 7328 3300C7378 3402 7689 4045 8021 4730C8737 6209 8667 6070 8689 6070C8705 6070 8706 5981 8704 4453Z"/>
 </g><text id="shape1" krita:useRichText="true" transform="matrix(1.24714014471633 0 0 1.24716854988024 -25.1573462690681 350.558179776594)" fill="#85061e" font-family="DejaVu Serif" font-size="48" font-size-adjust="0.473684" letter-spacing="0"><tspan><tspan x="0">Mari</tspan><tspan font-size="72" font-size-adjust="0.452206" letter-spacing="-9.5">J</tspan><tspan>Frank, Esq</tspan></tspan></text><text id="shape2" krita:useRichText="true" transform="matrix(1.24714014471633 0 0 1.24716854988024 51.6166010396294 410.657450525947)" fill="#000000" font-family="DejaVu Serif" font-size="36" font-size-adjust="0.473684"><tspan x="0">&amp; Associates</tspan></text><text id="shape3" krita:useRichText="true" transform="matrix(1.24714014471633 0 0 1.24716854988024 91.9594133611436 455.142171030829)" fill="#85061e" font-family="Abyssinica SIL" font-size="16" font-size-adjust="0.452206"><tspan x="0">Attorney | Mediator | Privacy Expert</tspan></text>
</svg>
